PathFileType	4	(X/Y/Z)	C:/Users/beibeiliu/ov580/test_trc/capture2\sequence.24_training_dense_right.trc
DataRate	CameraRate	NumFrames	NumMarkers	Units	OrigDataRate	OrigDataStartFrame	OrigNumFrames
120	120	10	19	mm	120	1	400
Frame#	Time	ThumbCMC			ThumbMCP			ThumbIP			ThumbTip			IndexMCP			IndexPIP			IndexTip			MiddleMCP			MiddlePIP			MiddleTip			RingMCP			RingPIP			RingTip			PinkyMCP			PinkyPIP			PinkyTip			BackHand1			BackHand2			BackHand3	
		X0	Y0	Z0	X1	Y1	Z1	X2	Y2	Z2	X3	Y3	Z3	X4	Y4	Z4	X5	Y5	Z5	X6	Y6	Z6	X7	Y7	Z7	X8	Y8	Z8	X9	Y9	Z9	X10	Y10	Z10	X11	Y11	Z11	X12	Y12	Z12	X13	Y13	Z13	X14	Y14	Z14	X15	Y15	Z15	X16	Y16	Z16	X17	Y17	Z17	X18	Y18	Z18	
0	0	105.387	22.2749	36.5782	108.446	-2.66726	4.32886	116.811	2.31446	-25.5592	131.502	24.4131	-35.6301	72.528	53.6603	-21.3014	62.1954	53.8636	-48.3803	53.1628	56.2551	-67.0467	86.1678	66.1888	-33.1154	73.5619	63.6511	-55.2391	63.8731	67.4631	-81.6495	110.623	61.1008	-41.5905	117.528	35.2026	-57.212	129.845	16.3491	-30.3363	135.67	49.6395	-33.2941	142.805	21.9591	-24.2203	139.891	23.9462	7.16864	121.597	76.3969	10.0757	130.549	76.1171	41.4646	100.656	60.8368	35.4703	
1	0.00833333	106.217	18.1076	33.7438	110.787	0.594314	7.30624	115.519	8.66158	-24.8337	129.514	27.0324	-36.653	76.517	44.5465	-23.009	65.0965	43.6983	-49.1283	61.7923	46.7753	-74.477	86.7298	56.3341	-31.9916	75.2487	54.6228	-59.9962	66.9424	57.7725	-85.1223	112.491	51.5305	-42.7647	128.149	32.3456	-58.459	139.264	5.61986	-36.4893	138.712	48.3377	-30.9675	149.041	20.6353	-22.497	140.46	22.6731	7.85417	121.069	72.5143	10.3431	129.496	73.2864	41.2808	98.8661	56.1807	32.7331	
2	0.0166667	110.278	13.9049	38.9787	114.953	-0.788859	6.38458	119.513	3.85017	-24.2303	133.079	25.9038	-32.8829	81.5015	37.8792	-26.1582	72.3166	34.1148	-48.7712	71.3818	36.7624	-75.2975	89.2263	49.6278	-39.1424	81.3109	46.3841	-62.2504	74.2006	48.3525	-89.9962	120.488	47.6476	-43.2863	131.938	25.3335	-56.633	147.715	1.64458	-36.6762	142.614	43.9481	-32.1514	155.145	19.9873	-22.2975	148.266	17.9967	6.96803	122.402	70.1202	7.69747	130.055	74.2363	36.9696	101.653	54.2751	31.9682	
3	0.025	111.264	11.0953	35.016	120.939	-8.68446	8.00235	129.553	-1.7827	-24.0829	144.342	19.7758	-33.761	86.1044	31.5386	-27.7358	80.1925	27.0018	-57.4712	82.8112	28.3668	-81.782	98.7091	47.3906	-41.6152	91.3932	42.4413	-68.1646	86.4133	41.3119	-93.4021	124.5	41.8361	-46.1345	141.666	16.8456	-56.42	152.658	-1.65884	-32.3759	148.391	40.8931	-31.5251	160.182	17.0313	-22.3491	151.196	17.0169	11.7692	122.183	66.9305	5.83984	132.038	70.6294	37.4658	100.633	48.7024	26.0611	
4	0.0333333	114.023	8.3973	31.0958	132.973	-12.4031	9.11833	146.758	-12.1911	-19.8901	161.336	10.9116	-31.0724	94.5991	29.4077	-36.3324	90.2307	22.805	-59.1091	95.9398	21.9247	-84.8156	104.815	41.4062	-40.9791	101.072	35.6285	-71.9565	97.2508	33.3287	-95.4023	133.139	40.4053	-43.1251	147.737	11.9724	-53.3822	155.863	-0.714376	-23.2568	157.657	39.251	-30.1382	165.676	10.6503	-16.5279	154.713	16.4349	12.8252	129.269	65.0794	5.72885	135.935	73.0922	34.1307	108.789	51.7057	24.4284	
5	0.0416667	119.612	7.65292	27.6856	142.151	-12.313	10.6031	158.327	-15.9507	-11.4793	173.318	2.48945	-26.4624	103.346	24.0886	-38.972	107.209	20.0218	-65.8277	106.017	13.249	-90.8059	118.259	39.3245	-45.6142	117.591	33.4114	-72.9499	114.65	26.6813	-97.5436	144.279	33.5998	-46.6041	162.176	9.38016	-51.0725	161.304	-1.90192	-20.4663	169.101	32.0572	-29.698	173.238	8.31541	-16.0738	159.753	14.7579	17.5331	140.237	64.3552	0.208543	138.799	69.0926	29.6988	113.339	50.1109	16.5063	
6	0.05	125.006	9.10933	26.9659	147.121	-17.1563	12.5882	168.016	-21.7602	-11.776	185.679	-2.87266	-24.4854	115.005	22.5618	-42.4166	115.786	13.8688	-68.7412	125.689	12.0083	-91.5869	127.526	34.6788	-48.6239	130.608	27.1436	-74.4509	132.673	20.6879	-101.237	159.526	31.5785	-46.2147	174.606	4.64232	-45.451	171.761	-3.63765	-13.5766	175.616	30.9783	-25.8449	182.798	5.79567	-8.34364	164.053	13.878	19.0373	143.852	62.3382	1.87364	141.512	67.3753	30.7409	117.429	47.9173	14.1748	
7	0.0583333	126.871	8.56093	30.1276	151.235	-17.98	14.1066	173.235	-23.0893	-6.69355	192.889	-3.55766	-20.0374	123.458	19.9755	-44.9899	131.946	11.7279	-71.3979	138.634	6.91483	-94.8318	141.676	31.6453	-51.5326	145.478	22.3215	-76.2764	152.265	16.1736	-105.116	171.688	27.5915	-43.9983	185.703	0.676334	-39.8997	176.342	-7.57195	-10.448	184.905	29.5893	-22.8818	189.543	3.19345	-8.95742	171.285	8.83494	21.3421	150.603	60.1471	-3.04528	145.997	68.2536	31.1783	120.446	47.4114	14.1076	
8	0.0666667	132.455	9.54638	24.5394	153.983	-18.837	16.1932	175.769	-23.1798	-1.59438	197.379	-7.59306	-13.9933	135.254	17.5632	-46.8096	140.783	9.02761	-70.359	150.602	5.55999	-89.6926	151.862	29.7696	-50.5527	158.804	18.0789	-77.6019	163.685	10.8657	-97.6328	175.921	27.1227	-39.9661	191.135	-0.133493	-39.6919	182.477	-7.59792	-4.91972	194.064	26.2019	-20.5602	193.72	0.666909	-4.78833	178.813	7.17448	22.0799	160.277	61.3766	-1.73622	153.38	68.5067	27.3557	128.736	48.1732	12.7977	
9	0.075	130.544	9.17215	28.5091	155.681	-19.6599	17.5783	177.476	-26.1261	0.676012	200.357	-8.32146	-11.5409	142.925	17.3566	-46.504	145.986	6.2542	-66.5522	159.197	0.91194	-91.0691	155.831	25.6561	-52.4592	166.225	15.136	-76.034	171.847	6.84593	-96.8405	182.857	26.2612	-38.2645	196.086	-1.56113	-37.7075	186.123	-9.17394	-5.27562	201.275	25.0961	-17.5195	199.782	-0.646464	-1.89576	178.31	2.7604	21.4514	160.701	56.5521	1.50256	156.554	67.1585	26.2911	132.585	50.2783	11.6837	
